# xmcd CD database file
#
# Track frame offsets:
#	150
#	19081
#	44115
#	57629
#	67700
#	73995
#	85226
#	113906
#	123679
#	148102
#	159584
#	181892
#	202907
#	228678
#	243758
#	256474
#
# Disc length: 3479 seconds
#
# Revision: 0
# Processed by: cddbd v1.5.2PL0 Copyright (c) Steve Scherf et al.
# Submitted via: CDex 1.70beta2
#
DISCID=ee0d9510
DTITLE=Aretha Franklin - The Queen of Soul Live From Chicago
DYEAR=1985
DGENRE=R&B/Soul/Funk
TTITLE0=Love is the Key
TTITLE1=Love All The Hurt Away
TTITLE2=Day Dreaming
TTITLE3=I Saw A Little Prayer
TTITLE4=See Saw
TTITLE5=Rock Steady
TTITLE6=Something He Can Feel
TTITLE7=Think
TTITLE8=Ain't No Way
TTITLE9=Respect
TTITLE10=Sweet Bitter Love
TTITLE11=It's My Turn
TTITLE12=Freeway of Love
TTITLE13=Didn't It Rain
TTITLE14=Jump To It
TTITLE15=Respect (Reprise)
EXTD=YEAR: 1985
EXTT0=
EXTT1=
EXTT2=
EXTT3=
EXTT4=
EXTT5=
EXTT6=
EXTT7=
EXTT8=
EXTT9=
EXTT10=
EXTT11=
EXTT12=
EXTT13=
EXTT14=
EXTT15=
PLAYORDER=
